<svg width="24" height="24" viewBox="0 0 24 24" fill="none" xmlns="http://www.w3.org/2000/svg">
<g clip-path="url(#clip0)">
<path d="M23.9967 8.26168V12.7477C20.645 14.0561 16.4818 14.8037 12.0012 14.8037C7.52047 14.8037 3.35731 14.0561 0.00561523 12.7477L0.00561523 8.26168C0.00561523 7.43925 0.640673 6.76635 1.41686 6.76635H7.23822V5.64486C7.23822 3.92523 8.5789 2.46729 10.2371 2.46729H13.7652C15.4234 2.46729 16.7641 3.92523 16.7641 5.64486V6.76635H22.5855C23.3616 6.76635 23.9967 7.43925 23.9967 8.26168ZM9.00227 5.64486V6.76635H15V5.64486C15 4.93458 14.4355 4.33644 13.7652 4.33644H10.2371C9.56677 4.33644 9.00227 4.93458 9.00227 5.64486ZM10.2371 12.486V13.2336C10.2371 13.4579 10.3782 13.6075 10.5899 13.6075H13.4124C13.6241 13.6075 13.7652 13.4579 13.7652 13.2336V12.486C13.7652 12.2617 13.6241 12.1121 13.4124 12.1121H10.5899C10.3782 12.1121 10.2371 12.2617 10.2371 12.486ZM0.00561523 22.5047L0.00561523 14.3551C3.39259 15.5888 7.52047 16.2991 12.0012 16.2991C16.4818 16.2991 20.6097 15.5888 23.9967 14.3551V22.5047C23.9967 23.3271 23.3616 24 22.5855 24H1.41686C0.640673 24 0.00561523 23.3271 0.00561523 22.5047ZM13.7652 18.6542V17.9065C13.7652 17.6822 13.6241 17.5327 13.4124 17.5327H10.5899C10.3782 17.5327 10.2371 17.6822 10.2371 17.9065V18.6542C10.2371 18.8785 10.3782 19.028 10.5899 19.028H13.4124C13.6241 19.028 13.7652 18.8785 13.7652 18.6542Z" fill="white"/>
</g>
<defs>
<clipPath id="clip0">
<rect width="24" height="24" fill="white"/>
</clipPath>
</defs>
</svg>
