<svg width="64" height="45" viewBox="0 0 64 45" fill="none" xmlns="http://www.w3.org/2000/svg">
<path d="M53.656 19.3547C52.2722 8.455 42.94 0 31.6667 0C22.9393 0 15.3583 5.09833 11.8972 13.1385C5.09517 15.1747 0 21.5967 0 28.5C0 36.9138 6.61517 43.7475 14.9087 44.2415V44.3333H50.635V44.3238L50.6667 44.3333C57.6523 44.3333 63.3333 38.6523 63.3333 31.6667C63.3296 28.8278 62.3742 26.0722 60.6199 23.8402C58.8656 21.6083 56.4136 20.029 53.656 19.3547ZM19 22.1667H28.5V12.6667H34.8333V22.1667H44.3333L31.6667 38L19 22.1667Z" fill="white"/>
</svg>
