<svg width="24" height="24" viewBox="0 0 24 24" fill="none" xmlns="http://www.w3.org/2000/svg">
<g clip-path="url(#clip0)">
<path d="M17.1107 15.0281L12 19.5L6.88929 15.0281C3.05893 15.1734 0 17.9156 0 21.3L0 21.75C0 22.9922 1.15179 24 2.57143 24H21.4286C22.8482 24 24 22.9922 24 21.75V21.3C24 17.9156 20.9411 15.1734 17.1107 15.0281V15.0281ZM0.728571 3.74062L1.07143 3.81093V6.54843C0.696429 6.74531 0.428571 7.0875 0.428571 7.5C0.428571 7.89375 0.675 8.22187 1.02321 8.42343L0.1875 11.3437C0.0964286 11.6672 0.3 12 0.594643 12H2.83393C3.12857 12 3.33214 11.6672 3.24107 11.3437L2.40536 8.42343C2.75357 8.22187 3 7.89375 3 7.5C3 7.0875 2.73214 6.74531 2.35714 6.54843V4.08281L5.89286 4.82812C5.43214 5.63437 5.14286 6.53437 5.14286 7.5C5.14286 10.8141 8.2125 13.5 12 13.5C15.7875 13.5 18.8571 10.8141 18.8571 7.5C18.8571 6.53437 18.5732 5.63437 18.1071 4.82812L23.2661 3.74062C24.2411 3.53437 24.2411 2.47031 23.2661 2.26406L13.0661 0.107809C12.3696 -0.0375031 11.6357 -0.0375031 10.9393 0.107809L0.728571 2.25937C-0.241071 2.46562 -0.241071 3.53437 0.728571 3.74062V3.74062Z" fill="white"/>
</g>
<defs>
<clipPath id="clip0">
<rect width="24" height="24" fill="white"/>
</clipPath>
</defs>
</svg>
