<svg width="24" height="24" viewBox="0 0 24 24" fill="none" xmlns="http://www.w3.org/2000/svg">
<g clip-path="url(#clip0)">
<path d="M12.9997 9.00014L13.0004 5.00003C13.0004 4.86864 12.9745 4.73853 12.9242 4.61714C12.8739 4.49574 12.8002 4.38544 12.7073 4.29253C12.6144 4.19962 12.5041 4.12592 12.3827 4.07564C12.2613 4.02536 12.1312 3.99948 11.9998 3.99948C11.8684 3.99948 11.7383 4.02536 11.6169 4.07564C11.4955 4.12592 11.3852 4.19962 11.2923 4.29253C11.1994 4.38544 11.1257 4.49574 11.0754 4.61714C11.0251 4.73853 10.9992 4.86864 10.9992 5.00003L11 9.00014L6.99985 8.99943C6.73449 8.99943 6.47999 9.10484 6.29235 9.29248C6.10471 9.48013 5.99929 9.73462 5.99929 9.99998C5.99929 10.2653 6.10471 10.5198 6.29235 10.7075C6.38526 10.8004 6.49556 10.8741 6.61695 10.9244C6.73835 10.9747 6.86845 11.0005 6.99985 11.0005L11 10.9998L10.9992 14.9999C10.9992 15.2653 11.1047 15.5198 11.2923 15.7074C11.4799 15.8951 11.7344 16.0005 11.9998 16.0005C12.2652 16.0005 12.5197 15.8951 12.7073 15.7074C12.8949 15.5198 13.0004 15.2653 13.0004 14.9999L12.9997 10.9998L16.9998 11.0005C17.2651 11.0005 17.5196 10.8951 17.7073 10.7075C17.8949 10.5198 18.0003 10.2653 18.0003 9.99998C18.0003 9.73462 17.8949 9.48012 17.7073 9.29248C17.5196 9.10484 17.2651 8.99943 16.9998 8.99943L12.9997 9.00014ZM19.0709 17.0711C15.1655 20.9764 8.83408 20.9764 4.92873 17.0711C1.02338 13.1657 1.02338 6.83427 4.92873 2.92892C8.83408 -0.976433 15.1655 -0.976433 19.0709 2.92892C22.9762 6.83427 22.9762 13.1657 19.0709 17.0711Z" fill="#242A42"/>
</g>
<defs>
<clipPath id="clip0">
<rect width="24" height="24" fill="white"/>
</clipPath>
</defs>
</svg>
