<svg width="30" height="30" viewBox="0 0 30 30" fill="none" xmlns="http://www.w3.org/2000/svg">
<path d="M14.9864 12.9882L10.9895 8.98983C10.8582 8.85851 10.7023 8.75435 10.5307 8.68328C10.3591 8.61221 10.1752 8.57564 9.98952 8.57564C9.80382 8.57564 9.61993 8.61221 9.44836 8.68328C9.27679 8.75435 9.1209 8.85851 8.98958 8.98983C8.85827 9.12114 8.7541 9.27704 8.68304 9.44861C8.61197 9.62018 8.57539 9.80406 8.57539 9.98977C8.57539 10.1755 8.61197 10.3594 8.68304 10.5309C8.7541 10.7025 8.85827 10.8584 8.98958 10.9897L12.9879 14.9867L8.98958 18.9836C8.72438 19.2488 8.57539 19.6085 8.57539 19.9835C8.57539 20.3586 8.72438 20.7183 8.98958 20.9835C9.25478 21.2487 9.61447 21.3977 9.98952 21.3977C10.1752 21.3977 10.3591 21.3611 10.5307 21.29C10.7023 21.219 10.8582 21.1148 10.9895 20.9835L14.9864 16.9851L18.9834 20.9835C19.2486 21.2487 19.6082 21.3977 19.9833 21.3977C20.3583 21.3977 20.718 21.2487 20.9832 20.9835C21.2484 20.7183 21.3974 20.3586 21.3974 19.9835C21.3974 19.6085 21.2484 19.2488 20.9832 18.9836L16.9849 14.9867L20.9832 10.9897C21.2484 10.7245 21.3974 10.3648 21.3974 9.98977C21.3974 9.61472 21.2484 9.25503 20.9832 8.98983C20.718 8.72463 20.3583 8.57564 19.9833 8.57564C19.6082 8.57564 19.2486 8.72463 18.9834 8.98983L14.9864 12.9882ZM29.1199 14.9867C29.1199 22.7926 22.7923 29.1201 14.9864 29.1201C7.1805 29.1201 0.852947 22.7926 0.852947 14.9867C0.852947 7.18074 7.1805 0.853193 14.9864 0.853193C22.7923 0.853193 29.1199 7.18074 29.1199 14.9867Z" fill="white"/>
</svg>
