<svg width="24" height="24" viewBox="0 0 24 24" fill="none" xmlns="http://www.w3.org/2000/svg">
<path d="M11.625 0C5.20275 0 0 5.2035 0 11.625C0 18.0465 5.2035 23.25 11.625 23.25C18.0472 23.25 23.25 18.0465 23.25 11.625C23.25 5.2035 18.0465 0 11.625 0ZM17.3348 7.96425L15.4268 16.9552C15.2858 17.5928 14.9062 17.7472 14.3768 17.4473L11.4705 15.3053L10.0688 16.6553C9.91425 16.8097 9.783 16.941 9.483 16.941L9.68925 13.983L15.075 9.117C15.3098 8.91075 15.0232 8.79375 14.7135 9L8.05725 13.1903L5.1885 12.2948C4.56525 12.0982 4.551 11.6715 5.31975 11.3715L16.5278 7.04925C17.0483 6.86175 17.5028 7.176 17.334 7.9635L17.3348 7.96425Z" fill="white"/>
</svg>
